{"glyphs":{" ":{"ha":694,"x_min":0,"x_max":0,"o":""},":":{"ha":694,"x_min":260,"x_max":434,"o":"m 347 174 l 260 174 l 260 260 l 260 347 l 347 347 l 434 347 l 434 260 l 434 174 l 347 174 m 347 608 l 260 608 l 260 694 l 260 781 l 347 781 l 434 781 l 434 694 l 434 608 l 347 608 z "},"处":{"ha":1389,"x_min":0,"x_max":1302,"o":"m 0 -174 l 0 -87 l 87 -87 l 87 -174 l 0 -174 m 0 347 l 0 434 l 87 434 l 87 347 l 0 347 m 87 -87 l 87 0 l 174 0 l 174 -87 l 87 -87 m 694 0 l 781 0 l 868 0 l 955 0 l 1042 0 l 1128 0 l 1128 87 l 1215 87 l 1302 87 l 1302 0 l 1215 0 l 1215 -87 l 1128 -87 l 1042 -87 l 955 -87 l 868 -87 l 781 -87 l 694 -87 l 608 -87 l 608 0 l 694 0 m 174 0 l 174 87 l 260 87 l 260 0 l 174 0 m 608 0 l 521 0 l 521 87 l 608 87 l 608 0 m 260 87 l 260 174 l 260 260 l 347 260 l 347 174 l 347 87 l 260 87 m 521 87 l 434 87 l 434 174 l 434 260 l 521 260 l 521 174 l 521 87 m 868 174 l 868 87 l 781 87 l 781 174 l 781 260 l 781 347 l 781 434 l 781 521 l 781 608 l 781 694 l 781 781 l 781 868 l 781 955 l 781 1042 l 781 1128 l 781 1215 l 868 1215 l 868 1128 l 868 1042 l 868 955 l 868 868 l 868 781 l 955 781 l 955 694 l 1042 694 l 1042 608 l 1128 608 l 1215 608 l 1215 521 l 1215 434 l 1128 434 l 1128 521 l 1042 521 l 1042 608 l 955 608 l 955 694 l 868 694 l 868 608 l 868 521 l 868 434 l 868 347 l 868 260 l 868 174 m 434 260 l 347 260 l 347 347 l 434 347 l 434 260 m 347 347 l 260 347 l 260 434 l 260 521 l 347 521 l 347 434 l 347 347 m 434 347 l 434 434 l 434 521 l 521 521 l 521 434 l 521 347 l 434 347 m 87 434 l 87 521 l 174 521 l 174 434 l 87 434 m 260 521 l 174 521 l 174 608 l 174 694 l 174 781 l 260 781 l 260 694 l 260 608 l 260 521 m 521 521 l 521 608 l 521 694 l 521 781 l 434 781 l 347 781 l 260 781 l 260 868 l 260 955 l 260 1042 l 260 1128 l 347 1128 l 347 1042 l 347 955 l 347 868 l 434 868 l 521 868 l 608 868 l 608 781 l 608 694 l 608 608 l 608 521 l 521 521 z "},"达":{"ha":1389,"x_min":0,"x_max":1302,"o":"m 0 -87 l 0 0 l 87 0 l 87 -87 l 0 -87 m 781 434 l 781 521 l 868 521 l 868 434 l 955 434 l 955 347 l 1042 347 l 1042 260 l 1128 260 l 1128 174 l 1128 87 l 1215 87 l 1302 87 l 1302 0 l 1215 0 l 1215 -87 l 1128 -87 l 1042 -87 l 955 -87 l 868 -87 l 781 -87 l 694 -87 l 608 -87 l 521 -87 l 434 -87 l 347 -87 l 347 0 l 434 0 l 521 0 l 608 0 l 694 0 l 781 0 l 868 0 l 955 0 l 1042 0 l 1128 0 l 1128 87 l 1042 87 l 1042 174 l 955 174 l 955 260 l 955 347 l 868 347 l 868 434 l 781 434 m 0 608 l 0 694 l 87 694 l 174 694 l 260 694 l 260 608 l 260 521 l 260 434 l 260 347 l 260 260 l 260 174 l 260 87 l 347 87 l 347 0 l 260 0 l 260 87 l 174 87 l 174 0 l 87 0 l 87 87 l 174 87 l 174 174 l 174 260 l 174 347 l 174 434 l 174 521 l 174 608 l 87 608 l 0 608 m 347 694 l 347 781 l 434 781 l 521 781 l 608 781 l 694 781 l 694 868 l 694 955 l 694 1042 l 694 1128 l 694 1215 l 781 1215 l 781 1128 l 781 1042 l 781 955 l 781 868 l 781 781 l 868 781 l 955 781 l 1042 781 l 1042 868 l 1128 868 l 1128 781 l 1215 781 l 1215 694 l 1128 694 l 1042 694 l 955 694 l 868 694 l 781 694 l 781 608 l 694 608 l 694 521 l 694 434 l 608 434 l 608 347 l 608 260 l 521 260 l 521 174 l 434 174 l 434 87 l 347 87 l 347 174 l 434 174 l 434 260 l 521 260 l 521 347 l 521 434 l 608 434 l 608 521 l 608 608 l 694 608 l 694 694 l 608 694 l 521 694 l 434 694 l 347 694 m 87 1042 l 87 1128 l 174 1128 l 174 1042 l 260 1042 l 260 955 l 260 868 l 174 868 l 174 955 l 174 1042 l 87 1042 z "},"打":{"ha":1389,"x_min":0,"x_max":1302,"o":"m 87 -87 l 87 0 l 174 0 l 174 -87 l 260 -87 l 260 -174 l 174 -174 l 174 -87 l 87 -87 m 694 -87 l 694 0 l 781 0 l 781 -87 l 868 -87 l 868 -174 l 781 -174 l 781 -87 l 694 -87 m 0 347 l 0 434 l 87 434 l 174 434 l 174 347 l 87 347 l 0 347 m 0 781 l 0 868 l 87 868 l 174 868 l 260 868 l 260 955 l 260 1042 l 260 1128 l 260 1215 l 347 1215 l 347 1128 l 347 1042 l 347 955 l 347 868 l 434 868 l 521 868 l 521 781 l 434 781 l 347 781 l 347 694 l 347 608 l 434 608 l 434 521 l 347 521 l 347 434 l 347 347 l 347 260 l 347 174 l 347 87 l 347 0 l 347 -87 l 260 -87 l 260 0 l 260 87 l 260 174 l 260 260 l 260 347 l 260 434 l 174 434 l 174 521 l 260 521 l 260 608 l 260 694 l 260 781 l 174 781 l 87 781 l 0 781 m 868 -87 l 868 0 l 868 87 l 868 174 l 868 260 l 868 347 l 868 434 l 868 521 l 868 608 l 868 694 l 868 781 l 868 868 l 781 868 l 694 868 l 608 868 l 521 868 l 521 955 l 608 955 l 694 955 l 781 955 l 868 955 l 955 955 l 1042 955 l 1128 955 l 1128 1042 l 1215 1042 l 1215 955 l 1302 955 l 1302 868 l 1215 868 l 1128 868 l 1042 868 l 955 868 l 955 781 l 955 694 l 955 608 l 955 521 l 955 434 l 955 347 l 955 260 l 955 174 l 955 87 l 955 0 l 955 -87 l 868 -87 m 434 608 l 434 694 l 521 694 l 521 608 l 434 608 z "},"抵":{"ha":1389,"x_min":0,"x_max":1302,"o":"m 87 -87 l 87 0 l 174 0 l 174 -87 l 260 -87 l 260 -174 l 174 -174 l 174 -87 l 87 -87 m 0 347 l 0 434 l 87 434 l 174 434 l 174 347 l 87 347 l 0 347 m 0 781 l 0 868 l 87 868 l 174 868 l 260 868 l 260 955 l 260 1042 l 260 1128 l 260 1215 l 347 1215 l 347 1128 l 347 1042 l 347 955 l 347 868 l 434 868 l 521 868 l 521 955 l 521 1042 l 608 1042 l 694 1042 l 781 1042 l 868 1042 l 868 1128 l 955 1128 l 1042 1128 l 1042 1215 l 1128 1215 l 1128 1128 l 1215 1128 l 1215 1042 l 1128 1042 l 1042 1042 l 955 1042 l 955 955 l 955 868 l 955 781 l 955 694 l 955 608 l 1042 608 l 1042 694 l 1128 694 l 1128 608 l 1215 608 l 1215 521 l 1128 521 l 1042 521 l 955 521 l 955 434 l 955 347 l 955 260 l 1042 260 l 1042 174 l 1042 87 l 1128 87 l 1128 0 l 1128 -87 l 1215 -87 l 1215 -174 l 1128 -174 l 1128 -87 l 1042 -87 l 1042 0 l 1042 87 l 955 87 l 955 0 l 868 0 l 868 87 l 955 87 l 955 174 l 955 260 l 868 260 l 868 174 l 868 87 l 781 87 l 694 87 l 694 0 l 608 0 l 608 -87 l 521 -87 l 521 0 l 521 87 l 521 174 l 521 260 l 521 347 l 521 434 l 521 521 l 521 608 l 434 608 l 434 521 l 347 521 l 347 434 l 347 347 l 347 260 l 347 174 l 347 87 l 347 0 l 347 -87 l 260 -87 l 260 0 l 260 87 l 260 174 l 260 260 l 260 347 l 260 434 l 174 434 l 174 521 l 260 521 l 260 608 l 260 694 l 260 781 l 174 781 l 87 781 l 0 781 m 1215 -87 l 1215 0 l 1215 87 l 1302 87 l 1302 0 l 1302 -87 l 1215 -87 m 608 87 l 694 87 l 694 174 l 781 174 l 781 260 l 868 260 l 868 347 l 868 434 l 868 521 l 781 521 l 694 521 l 608 521 l 608 434 l 608 347 l 608 260 l 608 174 l 608 87 m 694 608 l 781 608 l 868 608 l 868 694 l 868 781 l 868 868 l 868 955 l 781 955 l 694 955 l 608 955 l 608 868 l 608 781 l 608 694 l 608 608 l 694 608 m 347 608 l 434 608 l 434 694 l 521 694 l 521 781 l 434 781 l 347 781 l 347 694 l 347 608 z "},"第":{"ha":1389,"x_min":0,"x_max":1302,"o":"m 87 -87 l 87 0 l 174 0 l 260 0 l 260 -87 l 174 -87 l 87 -87 m 868 0 l 868 87 l 955 87 l 955 0 l 1042 0 l 1128 0 l 1128 -87 l 1042 -87 l 955 -87 l 955 0 l 868 0 m 0 781 l 0 868 l 87 868 l 87 781 l 0 781 m 694 -87 l 694 -174 l 608 -174 l 608 -87 l 608 0 l 608 87 l 608 174 l 521 174 l 521 87 l 434 87 l 434 0 l 347 0 l 260 0 l 260 87 l 347 87 l 434 87 l 434 174 l 521 174 l 521 260 l 434 260 l 347 260 l 260 260 l 174 260 l 174 347 l 174 434 l 174 521 l 174 608 l 260 608 l 347 608 l 434 608 l 521 608 l 608 608 l 608 694 l 608 781 l 521 781 l 434 781 l 347 781 l 260 781 l 174 781 l 174 868 l 260 868 l 347 868 l 347 955 l 260 955 l 174 955 l 174 868 l 87 868 l 87 955 l 174 955 l 174 1042 l 260 1042 l 260 1128 l 260 1215 l 347 1215 l 347 1128 l 347 1042 l 434 1042 l 434 1128 l 521 1128 l 521 1042 l 608 1042 l 608 955 l 694 955 l 694 868 l 781 868 l 868 868 l 868 955 l 781 955 l 694 955 l 694 1042 l 694 1128 l 694 1215 l 781 1215 l 781 1128 l 781 1042 l 868 1042 l 955 1042 l 1042 1042 l 1042 1128 l 1128 1128 l 1128 1042 l 1215 1042 l 1215 955 l 1128 955 l 1042 955 l 955 955 l 955 868 l 1042 868 l 1128 868 l 1128 781 l 1128 694 l 1128 608 l 1128 521 l 1042 521 l 955 521 l 868 521 l 781 521 l 694 521 l 694 434 l 694 347 l 781 347 l 868 347 l 955 347 l 1042 347 l 1128 347 l 1128 434 l 1215 434 l 1215 347 l 1302 347 l 1302 260 l 1215 260 l 1215 174 l 1215 87 l 1215 0 l 1128 0 l 1128 87 l 1128 174 l 1128 260 l 1042 260 l 955 260 l 868 260 l 781 260 l 694 260 l 694 174 l 694 87 l 694 0 l 694 -87 m 347 347 l 434 347 l 521 347 l 608 347 l 608 434 l 608 521 l 521 521 l 434 521 l 347 521 l 260 521 l 260 434 l 260 347 l 347 347 m 781 608 l 868 608 l 955 608 l 1042 608 l 1042 694 l 1042 781 l 955 781 l 868 781 l 781 781 l 694 781 l 694 694 l 694 608 l 781 608 m 521 868 l 608 868 l 608 955 l 521 955 l 434 955 l 434 868 l 521 868 z "},"点":{"ha":1389,"x_min":0,"x_max":1215,"o":"m 0 -174 l 0 -87 l 87 -87 l 87 -174 l 0 -174 m 347 87 l 347 174 l 434 174 l 434 87 l 521 87 l 521 0 l 521 -87 l 434 -87 l 434 0 l 434 87 l 347 87 m 608 87 l 608 174 l 694 174 l 694 87 l 781 87 l 868 87 l 868 0 l 868 -87 l 781 -87 l 781 0 l 694 0 l 694 87 l 608 87 m 955 87 l 955 174 l 1042 174 l 1042 87 l 1128 87 l 1128 0 l 1215 0 l 1215 -87 l 1215 -174 l 1128 -174 l 1128 -87 l 1128 0 l 1042 0 l 1042 87 l 955 87 m 87 -87 l 87 0 l 174 0 l 174 -87 l 87 -87 m 174 0 l 174 87 l 174 174 l 260 174 l 260 87 l 260 0 l 174 0 m 260 260 l 174 260 l 174 347 l 174 434 l 174 521 l 174 608 l 174 694 l 260 694 l 347 694 l 434 694 l 521 694 l 521 781 l 521 868 l 521 955 l 521 1042 l 521 1128 l 521 1215 l 608 1215 l 608 1128 l 608 1042 l 608 955 l 694 955 l 781 955 l 868 955 l 955 955 l 1042 955 l 1042 1042 l 1128 1042 l 1128 955 l 1215 955 l 1215 868 l 1128 868 l 1042 868 l 955 868 l 868 868 l 781 868 l 694 868 l 608 868 l 608 781 l 608 694 l 694 694 l 781 694 l 868 694 l 955 694 l 955 781 l 1042 781 l 1042 694 l 1128 694 l 1128 608 l 1042 608 l 1042 521 l 1042 434 l 1042 347 l 1042 260 l 955 260 l 868 260 l 781 260 l 694 260 l 608 260 l 521 260 l 434 260 l 347 260 l 260 260 m 347 347 l 434 347 l 521 347 l 608 347 l 694 347 l 781 347 l 868 347 l 955 347 l 955 434 l 955 521 l 955 608 l 868 608 l 781 608 l 694 608 l 608 608 l 521 608 l 434 608 l 347 608 l 260 608 l 260 521 l 260 434 l 260 347 l 347 347 z "},"段":{"ha":1389,"x_min":0,"x_max":1302,"o":"m 521 -174 l 521 -87 l 608 -87 l 694 -87 l 694 -174 l 608 -174 l 521 -174 m 0 87 l 0 174 l 87 174 l 174 174 l 174 260 l 174 347 l 174 434 l 174 521 l 174 608 l 174 694 l 174 781 l 174 868 l 174 955 l 174 1042 l 260 1042 l 347 1042 l 434 1042 l 434 955 l 347 955 l 260 955 l 260 868 l 260 781 l 347 781 l 434 781 l 434 868 l 521 868 l 521 781 l 608 781 l 608 694 l 694 694 l 694 608 l 608 608 l 608 694 l 521 694 l 434 694 l 347 694 l 260 694 l 260 608 l 260 521 l 347 521 l 434 521 l 434 608 l 521 608 l 521 521 l 608 521 l 608 434 l 521 434 l 434 434 l 347 434 l 260 434 l 260 347 l 260 260 l 347 260 l 434 260 l 521 260 l 608 260 l 608 174 l 521 174 l 434 174 l 347 174 l 260 174 l 260 87 l 260 0 l 260 -87 l 260 -174 l 174 -174 l 174 -87 l 174 0 l 174 87 l 87 87 l 0 87 m 694 -87 l 694 0 l 781 0 l 781 -87 l 694 -87 m 1128 0 l 1215 0 l 1302 0 l 1302 -87 l 1215 -87 l 1215 -174 l 1128 -174 l 1128 -87 l 1042 -87 l 1042 0 l 1128 0 m 781 0 l 781 87 l 868 87 l 868 0 l 781 0 m 1042 0 l 955 0 l 955 87 l 1042 87 l 1042 0 m 955 87 l 868 87 l 868 174 l 955 174 l 955 87 m 868 174 l 781 174 l 781 260 l 868 260 l 868 174 m 955 174 l 955 260 l 955 347 l 1042 347 l 1042 260 l 1042 174 l 955 174 m 781 260 l 694 260 l 694 347 l 694 434 l 694 521 l 781 521 l 868 521 l 955 521 l 1042 521 l 1128 521 l 1128 434 l 1128 347 l 1042 347 l 1042 434 l 955 434 l 868 434 l 781 434 l 781 347 l 781 260 m 1215 694 l 1302 694 l 1302 608 l 1215 608 l 1128 608 l 1128 694 l 1215 694 m 694 694 l 694 781 l 694 868 l 694 955 l 694 1042 l 694 1128 l 781 1128 l 868 1128 l 955 1128 l 1042 1128 l 1042 1215 l 1128 1215 l 1128 1128 l 1215 1128 l 1215 1042 l 1128 1042 l 1128 955 l 1128 868 l 1128 781 l 1128 694 l 1042 694 l 1042 781 l 1042 868 l 1042 955 l 1042 1042 l 955 1042 l 868 1042 l 781 1042 l 781 955 l 781 868 l 781 781 l 781 694 l 694 694 m 434 1042 l 434 1128 l 521 1128 l 608 1128 l 608 1042 l 521 1042 l 434 1042 z "},"二":{"ha":1389,"x_min":0,"x_max":1302,"o":"m 0 87 l 0 174 l 87 174 l 174 174 l 260 174 l 347 174 l 434 174 l 521 174 l 608 174 l 694 174 l 781 174 l 868 174 l 955 174 l 1042 174 l 1128 174 l 1128 260 l 1215 260 l 1215 174 l 1302 174 l 1302 87 l 1215 87 l 1128 87 l 1042 87 l 955 87 l 868 87 l 781 87 l 694 87 l 608 87 l 521 87 l 434 87 l 347 87 l 260 87 l 174 87 l 87 87 l 0 87 m 174 868 l 174 955 l 260 955 l 347 955 l 434 955 l 521 955 l 608 955 l 694 955 l 781 955 l 868 955 l 955 955 l 955 1042 l 1042 1042 l 1042 955 l 1128 955 l 1128 868 l 1042 868 l 955 868 l 868 868 l 781 868 l 694 868 l 608 868 l 521 868 l 434 868 l 347 868 l 260 868 l 174 868 z "},"更":{"ha":1389,"x_min":0,"x_max":1302,"o":"m 0 -174 l 0 -87 l 87 -87 l 174 -87 l 260 -87 l 260 -174 l 174 -174 l 87 -174 l 0 -174 m 0 1042 l 0 1128 l 87 1128 l 174 1128 l 260 1128 l 347 1128 l 434 1128 l 521 1128 l 608 1128 l 694 1128 l 781 1128 l 868 1128 l 955 1128 l 1042 1128 l 1128 1128 l 1128 1215 l 1215 1215 l 1215 1128 l 1302 1128 l 1302 1042 l 1215 1042 l 1128 1042 l 1128 955 l 1215 955 l 1215 868 l 1128 868 l 1128 781 l 1128 694 l 1128 608 l 1128 521 l 1128 434 l 1128 347 l 1128 260 l 1042 260 l 1042 347 l 955 347 l 868 347 l 781 347 l 694 347 l 694 260 l 694 174 l 608 174 l 608 87 l 694 87 l 781 87 l 781 0 l 868 0 l 955 0 l 1042 0 l 1042 -87 l 1128 -87 l 1215 -87 l 1302 -87 l 1302 -174 l 1215 -174 l 1128 -174 l 1042 -174 l 1042 -87 l 955 -87 l 868 -87 l 781 -87 l 781 0 l 694 0 l 608 0 l 608 87 l 521 87 l 521 0 l 434 0 l 434 -87 l 347 -87 l 260 -87 l 260 0 l 347 0 l 434 0 l 434 87 l 521 87 l 521 174 l 608 174 l 608 260 l 608 347 l 521 347 l 434 347 l 434 260 l 521 260 l 521 174 l 434 174 l 434 260 l 347 260 l 347 347 l 260 347 l 260 260 l 174 260 l 174 347 l 174 434 l 174 521 l 174 608 l 174 694 l 174 781 l 174 868 l 174 955 l 260 955 l 347 955 l 434 955 l 521 955 l 608 955 l 608 1042 l 521 1042 l 434 1042 l 347 1042 l 260 1042 l 174 1042 l 87 1042 l 0 1042 m 347 434 l 434 434 l 521 434 l 608 434 l 608 521 l 608 608 l 521 608 l 434 608 l 347 608 l 260 608 l 260 521 l 260 434 l 347 434 m 781 434 l 868 434 l 955 434 l 1042 434 l 1042 521 l 1042 608 l 955 608 l 868 608 l 781 608 l 694 608 l 694 521 l 694 434 l 781 434 m 347 694 l 434 694 l 521 694 l 608 694 l 608 781 l 608 868 l 521 868 l 434 868 l 347 868 l 260 868 l 260 781 l 260 694 l 347 694 m 781 694 l 868 694 l 955 694 l 1042 694 l 1042 781 l 1042 868 l 955 868 l 868 868 l 781 868 l 694 868 l 694 781 l 694 694 l 781 694 m 781 955 l 868 955 l 955 955 l 1042 955 l 1042 1042 l 955 1042 l 868 1042 l 781 1042 l 694 1042 l 694 955 l 781 955 z "},"恭":{"ha":1389,"x_min":0,"x_max":1302,"o":"m 434 -87 l 434 0 l 521 0 l 521 -87 l 608 -87 l 608 -174 l 521 -174 l 521 -87 l 434 -87 m 174 0 l 174 87 l 260 87 l 260 0 l 174 0 m 0 260 l 0 347 l 87 347 l 174 347 l 174 260 l 87 260 l 0 260 m 868 260 l 868 347 l 955 347 l 955 260 l 1042 260 l 1042 174 l 1128 174 l 1128 87 l 1128 0 l 1042 0 l 1042 87 l 1042 174 l 955 174 l 955 260 l 868 260 m 0 694 l 0 781 l 87 781 l 174 781 l 260 781 l 347 781 l 347 868 l 347 955 l 260 955 l 174 955 l 87 955 l 87 1042 l 174 1042 l 260 1042 l 347 1042 l 347 1128 l 347 1215 l 434 1215 l 434 1128 l 434 1042 l 521 1042 l 608 1042 l 694 1042 l 781 1042 l 868 1042 l 868 1128 l 868 1215 l 955 1215 l 955 1128 l 955 1042 l 1042 1042 l 1042 1128 l 1128 1128 l 1128 1042 l 1215 1042 l 1215 955 l 1128 955 l 1042 955 l 955 955 l 955 868 l 955 781 l 1042 781 l 1128 781 l 1128 868 l 1215 868 l 1215 781 l 1302 781 l 1302 694 l 1215 694 l 1128 694 l 1042 694 l 955 694 l 868 694 l 868 608 l 955 608 l 955 521 l 1042 521 l 1042 434 l 1128 434 l 1215 434 l 1302 434 l 1302 347 l 1215 347 l 1215 260 l 1128 260 l 1128 347 l 1042 347 l 1042 434 l 955 434 l 955 521 l 868 521 l 868 608 l 781 608 l 781 694 l 694 694 l 608 694 l 521 694 l 521 608 l 434 608 l 434 521 l 347 521 l 347 434 l 260 434 l 260 347 l 174 347 l 174 434 l 260 434 l 260 521 l 347 521 l 347 608 l 434 608 l 434 694 l 347 694 l 260 694 l 174 694 l 87 694 l 0 694 m 608 -87 l 608 0 l 608 87 l 608 174 l 608 260 l 608 347 l 608 434 l 608 521 l 608 608 l 694 608 l 694 521 l 694 434 l 694 347 l 694 260 l 781 260 l 781 174 l 868 174 l 868 87 l 781 87 l 781 174 l 694 174 l 694 87 l 694 0 l 694 -87 l 608 -87 m 260 87 l 260 174 l 347 174 l 347 87 l 260 87 m 347 174 l 347 260 l 347 347 l 434 347 l 434 260 l 434 174 l 347 174 m 521 781 l 608 781 l 694 781 l 781 781 l 868 781 l 868 868 l 868 955 l 781 955 l 694 955 l 608 955 l 521 955 l 434 955 l 434 868 l 434 781 l 521 781 z "},"关":{"ha":1389,"x_min":0,"x_max":1302,"o":"m 0 -174 l 0 -87 l 87 -87 l 174 -87 l 174 -174 l 87 -174 l 0 -174 m 0 434 l 0 521 l 87 521 l 174 521 l 260 521 l 347 521 l 434 521 l 521 521 l 608 521 l 608 608 l 608 694 l 608 781 l 521 781 l 434 781 l 347 781 l 260 781 l 174 781 l 87 781 l 87 868 l 174 868 l 260 868 l 347 868 l 434 868 l 434 955 l 434 1042 l 521 1042 l 521 955 l 521 868 l 608 868 l 694 868 l 781 868 l 781 955 l 868 955 l 868 868 l 955 868 l 1042 868 l 1042 955 l 1128 955 l 1128 868 l 1215 868 l 1215 781 l 1128 781 l 1042 781 l 955 781 l 868 781 l 781 781 l 694 781 l 694 694 l 694 608 l 694 521 l 781 521 l 868 521 l 955 521 l 1042 521 l 1128 521 l 1128 608 l 1215 608 l 1215 521 l 1302 521 l 1302 434 l 1215 434 l 1128 434 l 1042 434 l 955 434 l 868 434 l 781 434 l 694 434 l 694 347 l 781 347 l 781 260 l 781 174 l 868 174 l 868 87 l 955 87 l 1042 87 l 1042 0 l 1128 0 l 1215 0 l 1302 0 l 1302 -87 l 1215 -87 l 1215 -174 l 1128 -174 l 1128 -87 l 1042 -87 l 1042 0 l 955 0 l 868 0 l 868 87 l 781 87 l 781 174 l 694 174 l 694 260 l 694 347 l 608 347 l 608 260 l 608 174 l 521 174 l 521 87 l 434 87 l 434 0 l 347 0 l 347 -87 l 260 -87 l 174 -87 l 174 0 l 260 0 l 347 0 l 347 87 l 434 87 l 434 174 l 521 174 l 521 260 l 521 347 l 608 347 l 608 434 l 521 434 l 434 434 l 347 434 l 260 434 l 174 434 l 87 434 l 0 434 m 260 1128 l 260 1215 l 347 1215 l 347 1128 l 434 1128 l 434 1042 l 347 1042 l 347 1128 l 260 1128 m 868 955 l 868 1042 l 955 1042 l 955 955 l 868 955 m 955 1042 l 955 1128 l 955 1215 l 1042 1215 l 1042 1128 l 1128 1128 l 1128 1042 l 1042 1042 l 955 1042 z "},"过":{"ha":1389,"x_min":0,"x_max":1302,"o":"m 87 -87 l 87 0 l 174 0 l 174 -87 l 87 -87 m 781 174 l 781 260 l 868 260 l 868 174 l 955 174 l 955 87 l 868 87 l 868 174 l 781 174 m 0 608 l 0 694 l 87 694 l 174 694 l 260 694 l 347 694 l 347 608 l 347 521 l 347 434 l 347 347 l 347 260 l 347 174 l 347 87 l 434 87 l 434 0 l 521 0 l 608 0 l 694 0 l 781 0 l 868 0 l 955 0 l 1042 0 l 1128 0 l 1128 87 l 1215 87 l 1302 87 l 1302 0 l 1215 0 l 1215 -87 l 1128 -87 l 1042 -87 l 955 -87 l 868 -87 l 781 -87 l 694 -87 l 608 -87 l 521 -87 l 434 -87 l 434 0 l 347 0 l 347 87 l 260 87 l 260 0 l 174 0 l 174 87 l 260 87 l 260 174 l 260 260 l 260 347 l 260 434 l 260 521 l 260 608 l 174 608 l 87 608 l 0 608 m 608 608 l 608 694 l 694 694 l 694 608 l 781 608 l 781 521 l 781 434 l 694 434 l 694 521 l 694 608 l 608 608 m 434 868 l 434 955 l 521 955 l 608 955 l 694 955 l 781 955 l 868 955 l 955 955 l 955 1042 l 955 1128 l 955 1215 l 1042 1215 l 1042 1128 l 1042 1042 l 1042 955 l 1128 955 l 1215 955 l 1215 868 l 1128 868 l 1042 868 l 1042 781 l 1042 694 l 1042 608 l 1042 521 l 1042 434 l 1042 347 l 1042 260 l 1042 174 l 955 174 l 955 260 l 955 347 l 955 434 l 955 521 l 955 608 l 955 694 l 955 781 l 955 868 l 868 868 l 781 868 l 694 868 l 608 868 l 521 868 l 434 868 m 87 1042 l 87 1128 l 174 1128 l 174 1042 l 260 1042 l 260 955 l 347 955 l 347 868 l 260 868 l 260 955 l 174 955 l 174 1042 l 87 1042 z "},"和":{"ha":1389,"x_min":0,"x_max":1302,"o":"m 0 87 l 0 174 l 87 174 l 87 87 l 0 87 m 0 694 l 0 781 l 87 781 l 174 781 l 260 781 l 347 781 l 347 868 l 347 955 l 260 955 l 174 955 l 87 955 l 87 1042 l 174 1042 l 260 1042 l 347 1042 l 434 1042 l 434 955 l 434 868 l 434 781 l 521 781 l 521 868 l 608 868 l 608 781 l 694 781 l 694 868 l 781 868 l 868 868 l 955 868 l 1042 868 l 1128 868 l 1128 955 l 1215 955 l 1215 868 l 1302 868 l 1302 781 l 1215 781 l 1215 694 l 1215 608 l 1215 521 l 1215 434 l 1215 347 l 1215 260 l 1215 174 l 1215 87 l 1215 0 l 1128 0 l 1128 87 l 1042 87 l 955 87 l 868 87 l 781 87 l 781 0 l 694 0 l 694 87 l 694 174 l 694 260 l 694 347 l 694 434 l 694 521 l 694 608 l 694 694 l 608 694 l 521 694 l 434 694 l 434 608 l 434 521 l 521 521 l 521 434 l 608 434 l 608 347 l 608 260 l 521 260 l 521 347 l 521 434 l 434 434 l 434 347 l 434 260 l 434 174 l 434 87 l 434 0 l 434 -87 l 434 -174 l 347 -174 l 347 -87 l 347 0 l 347 87 l 347 174 l 347 260 l 347 347 l 347 434 l 260 434 l 260 347 l 260 260 l 174 260 l 174 174 l 87 174 l 87 260 l 174 260 l 174 347 l 174 434 l 260 434 l 260 521 l 260 608 l 347 608 l 347 694 l 260 694 l 174 694 l 87 694 l 0 694 m 868 174 l 955 174 l 1042 174 l 1128 174 l 1128 260 l 1128 347 l 1128 434 l 1128 521 l 1128 608 l 1128 694 l 1128 781 l 1042 781 l 955 781 l 868 781 l 781 781 l 781 694 l 781 608 l 781 521 l 781 434 l 781 347 l 781 260 l 781 174 l 868 174 m 434 1042 l 434 1128 l 521 1128 l 521 1215 l 608 1215 l 608 1128 l 694 1128 l 694 1042 l 608 1042 l 521 1042 l 434 1042 z "},"击":{"ha":1389,"x_min":0,"x_max":1302,"o":"m 0 434 l 0 521 l 87 521 l 174 521 l 260 521 l 347 521 l 434 521 l 521 521 l 608 521 l 608 608 l 608 694 l 608 781 l 608 868 l 521 868 l 434 868 l 347 868 l 260 868 l 174 868 l 87 868 l 87 955 l 174 955 l 260 955 l 347 955 l 434 955 l 521 955 l 608 955 l 608 1042 l 608 1128 l 608 1215 l 694 1215 l 694 1128 l 694 1042 l 694 955 l 781 955 l 868 955 l 955 955 l 1042 955 l 1042 1042 l 1128 1042 l 1128 955 l 1215 955 l 1215 868 l 1128 868 l 1042 868 l 955 868 l 868 868 l 781 868 l 694 868 l 694 781 l 694 694 l 694 608 l 694 521 l 781 521 l 868 521 l 955 521 l 1042 521 l 1128 521 l 1128 608 l 1215 608 l 1215 521 l 1302 521 l 1302 434 l 1215 434 l 1128 434 l 1042 434 l 955 434 l 868 434 l 781 434 l 694 434 l 694 347 l 694 260 l 694 174 l 694 87 l 694 0 l 781 0 l 868 0 l 955 0 l 1042 0 l 1042 87 l 1042 174 l 1042 260 l 1128 260 l 1128 174 l 1128 87 l 1128 0 l 1128 -87 l 1128 -174 l 1042 -174 l 1042 -87 l 955 -87 l 868 -87 l 781 -87 l 694 -87 l 608 -87 l 521 -87 l 434 -87 l 347 -87 l 260 -87 l 260 -174 l 174 -174 l 174 -87 l 174 0 l 174 87 l 174 174 l 174 260 l 260 260 l 260 174 l 260 87 l 260 0 l 347 0 l 434 0 l 521 0 l 608 0 l 608 87 l 608 174 l 608 260 l 608 347 l 608 434 l 521 434 l 434 434 l 347 434 l 260 434 l 174 434 l 87 434 l 0 434 z "},"加":{"ha":1389,"x_min":0,"x_max":1302,"o":"m 0 -87 l 0 0 l 87 0 l 87 -87 l 0 -87 m 347 0 l 347 87 l 434 87 l 434 0 l 521 0 l 521 -87 l 434 -87 l 434 0 l 347 0 m 0 781 l 0 868 l 87 868 l 174 868 l 260 868 l 260 955 l 260 1042 l 260 1128 l 260 1215 l 347 1215 l 347 1128 l 347 1042 l 347 955 l 347 868 l 434 868 l 521 868 l 521 955 l 608 955 l 608 868 l 694 868 l 694 781 l 608 781 l 608 694 l 608 608 l 608 521 l 608 434 l 608 347 l 608 260 l 608 174 l 608 87 l 608 0 l 521 0 l 521 87 l 521 174 l 521 260 l 521 347 l 521 434 l 521 521 l 521 608 l 521 694 l 521 781 l 434 781 l 347 781 l 347 694 l 347 608 l 347 521 l 347 434 l 260 434 l 260 347 l 260 260 l 260 174 l 260 87 l 174 87 l 174 0 l 87 0 l 87 87 l 174 87 l 174 174 l 174 260 l 174 347 l 174 434 l 260 434 l 260 521 l 260 608 l 260 694 l 260 781 l 174 781 l 87 781 l 0 781 m 781 0 l 781 87 l 781 174 l 781 260 l 781 347 l 781 434 l 781 521 l 781 608 l 781 694 l 781 781 l 781 868 l 781 955 l 868 955 l 955 955 l 1042 955 l 1128 955 l 1128 1042 l 1215 1042 l 1215 955 l 1302 955 l 1302 868 l 1215 868 l 1215 781 l 1215 694 l 1215 608 l 1215 521 l 1215 434 l 1215 347 l 1215 260 l 1215 174 l 1215 87 l 1215 0 l 1215 -87 l 1128 -87 l 1128 0 l 1042 0 l 955 0 l 868 0 l 868 -87 l 781 -87 l 781 0 m 955 87 l 1042 87 l 1128 87 l 1128 174 l 1128 260 l 1128 347 l 1128 434 l 1128 521 l 1128 608 l 1128 694 l 1128 781 l 1128 868 l 1042 868 l 955 868 l 868 868 l 868 781 l 868 694 l 868 608 l 868 521 l 868 434 l 868 347 l 868 260 l 868 174 l 868 87 l 955 87 z "},"键":{"ha":1389,"x_min":0,"x_max":1302,"o":"m 434 260 l 434 347 l 521 347 l 521 260 l 608 260 l 608 174 l 608 87 l 694 87 l 694 0 l 781 0 l 781 -87 l 868 -87 l 955 -87 l 955 0 l 955 87 l 955 174 l 868 174 l 781 174 l 694 174 l 694 260 l 781 260 l 868 260 l 955 260 l 955 347 l 955 434 l 868 434 l 781 434 l 781 521 l 868 521 l 955 521 l 955 608 l 868 608 l 781 608 l 781 694 l 868 694 l 955 694 l 955 781 l 868 781 l 781 781 l 694 781 l 694 868 l 781 868 l 868 868 l 955 868 l 955 955 l 868 955 l 781 955 l 781 1042 l 868 1042 l 955 1042 l 955 1128 l 955 1215 l 1042 1215 l 1042 1128 l 1042 1042 l 1128 1042 l 1215 1042 l 1215 955 l 1215 868 l 1302 868 l 1302 781 l 1215 781 l 1215 694 l 1215 608 l 1128 608 l 1042 608 l 1042 521 l 1128 521 l 1215 521 l 1215 434 l 1128 434 l 1042 434 l 1042 347 l 1042 260 l 1128 260 l 1128 347 l 1215 347 l 1215 260 l 1302 260 l 1302 174 l 1215 174 l 1128 174 l 1042 174 l 1042 87 l 1042 0 l 1042 -87 l 1128 -87 l 1128 0 l 1215 0 l 1302 0 l 1302 -87 l 1215 -87 l 1215 -174 l 1128 -174 l 1042 -174 l 955 -174 l 868 -174 l 781 -174 l 781 -87 l 694 -87 l 694 0 l 608 0 l 608 87 l 521 87 l 521 0 l 434 0 l 434 -87 l 347 -87 l 347 0 l 434 0 l 434 87 l 521 87 l 521 174 l 521 260 l 434 260 m 0 434 l 0 521 l 87 521 l 174 521 l 174 608 l 174 694 l 87 694 l 87 781 l 174 781 l 260 781 l 347 781 l 434 781 l 434 694 l 521 694 l 521 608 l 608 608 l 694 608 l 694 521 l 694 434 l 694 347 l 694 260 l 608 260 l 608 347 l 608 434 l 608 521 l 521 521 l 434 521 l 434 434 l 347 434 l 260 434 l 260 347 l 260 260 l 260 174 l 260 87 l 347 87 l 347 0 l 260 0 l 260 -87 l 174 -87 l 174 0 l 174 87 l 174 174 l 174 260 l 174 347 l 174 434 l 87 434 l 0 434 m 0 781 l 0 868 l 87 868 l 87 781 l 0 781 m 434 87 l 347 87 l 347 174 l 434 174 l 434 87 m 347 521 l 434 521 l 434 608 l 434 694 l 347 694 l 260 694 l 260 608 l 260 521 l 347 521 m 521 694 l 521 781 l 521 868 l 608 868 l 608 781 l 608 694 l 521 694 m 1042 694 l 1128 694 l 1128 781 l 1042 781 l 1042 694 m 87 868 l 87 955 l 174 955 l 174 868 l 87 868 m 694 868 l 608 868 l 608 955 l 608 1042 l 521 1042 l 434 1042 l 434 955 l 347 955 l 260 955 l 174 955 l 174 1042 l 174 1128 l 174 1215 l 260 1215 l 260 1128 l 260 1042 l 347 1042 l 434 1042 l 434 1128 l 521 1128 l 608 1128 l 694 1128 l 694 1042 l 694 955 l 694 868 m 1042 868 l 1128 868 l 1128 955 l 1042 955 l 1042 868 z "},"开":{"ha":1389,"x_min":0,"x_max":1302,"o":"m 87 -174 l 87 -87 l 174 -87 l 174 -174 l 87 -174 m 0 521 l 0 608 l 87 608 l 174 608 l 260 608 l 347 608 l 347 694 l 347 781 l 347 868 l 347 955 l 347 1042 l 260 1042 l 174 1042 l 87 1042 l 87 1128 l 174 1128 l 260 1128 l 347 1128 l 434 1128 l 521 1128 l 608 1128 l 694 1128 l 781 1128 l 868 1128 l 955 1128 l 1042 1128 l 1042 1215 l 1128 1215 l 1128 1128 l 1215 1128 l 1215 1042 l 1128 1042 l 1042 1042 l 955 1042 l 955 955 l 955 868 l 955 781 l 955 694 l 955 608 l 1042 608 l 1128 608 l 1128 694 l 1215 694 l 1215 608 l 1302 608 l 1302 521 l 1215 521 l 1128 521 l 1042 521 l 955 521 l 955 434 l 955 347 l 955 260 l 955 174 l 955 87 l 955 0 l 955 -87 l 955 -174 l 868 -174 l 868 -87 l 868 0 l 868 87 l 868 174 l 868 260 l 868 347 l 868 434 l 868 521 l 781 521 l 694 521 l 608 521 l 521 521 l 434 521 l 434 434 l 434 347 l 434 260 l 434 174 l 347 174 l 347 87 l 347 0 l 260 0 l 260 -87 l 174 -87 l 174 0 l 260 0 l 260 87 l 260 174 l 347 174 l 347 260 l 347 347 l 347 434 l 347 521 l 260 521 l 174 521 l 87 521 l 0 521 m 521 608 l 608 608 l 694 608 l 781 608 l 868 608 l 868 694 l 868 781 l 868 868 l 868 955 l 868 1042 l 781 1042 l 694 1042 l 608 1042 l 521 1042 l 434 1042 l 434 955 l 434 868 l 434 781 l 434 694 l 434 608 l 521 608 z "},"可":{"ha":1389,"x_min":0,"x_max":1302,"o":"m 781 -87 l 781 0 l 868 0 l 868 -87 l 955 -87 l 955 -174 l 868 -174 l 868 -87 l 781 -87 m 0 1042 l 0 1128 l 87 1128 l 174 1128 l 260 1128 l 347 1128 l 434 1128 l 521 1128 l 608 1128 l 694 1128 l 781 1128 l 868 1128 l 955 1128 l 1042 1128 l 1128 1128 l 1128 1215 l 1215 1215 l 1215 1128 l 1302 1128 l 1302 1042 l 1215 1042 l 1128 1042 l 1042 1042 l 1042 955 l 1042 868 l 1042 781 l 1042 694 l 1042 608 l 1042 521 l 1042 434 l 1042 347 l 1042 260 l 1042 174 l 1042 87 l 1042 0 l 1042 -87 l 955 -87 l 955 0 l 955 87 l 955 174 l 955 260 l 955 347 l 955 434 l 955 521 l 955 608 l 955 694 l 955 781 l 955 868 l 955 955 l 955 1042 l 868 1042 l 781 1042 l 694 1042 l 608 1042 l 521 1042 l 434 1042 l 347 1042 l 260 1042 l 174 1042 l 87 1042 l 0 1042 m 260 260 l 260 347 l 260 434 l 260 521 l 260 608 l 260 694 l 260 781 l 260 868 l 347 868 l 434 868 l 521 868 l 608 868 l 694 868 l 694 955 l 781 955 l 781 868 l 868 868 l 868 781 l 781 781 l 781 694 l 781 608 l 781 521 l 781 434 l 781 347 l 781 260 l 781 174 l 694 174 l 694 260 l 608 260 l 521 260 l 434 260 l 347 260 l 347 174 l 260 174 l 260 260 m 434 347 l 521 347 l 608 347 l 694 347 l 694 434 l 694 521 l 694 608 l 694 694 l 694 781 l 608 781 l 521 781 l 434 781 l 347 781 l 347 694 l 347 608 l 347 521 l 347 434 l 347 347 l 434 347 z "},"乐":{"ha":1389,"x_min":87,"x_max":1302,"o":"m 87 -87 l 87 0 l 174 0 l 174 -87 l 87 -87 m 434 -87 l 434 0 l 521 0 l 521 -87 l 608 -87 l 608 -174 l 521 -174 l 521 -87 l 434 -87 m 868 260 l 868 347 l 955 347 l 955 260 l 1042 260 l 1042 174 l 1128 174 l 1128 87 l 1215 87 l 1215 0 l 1215 -87 l 1128 -87 l 1128 0 l 1042 0 l 1042 87 l 1042 174 l 955 174 l 955 260 l 868 260 m 87 521 l 87 608 l 174 608 l 174 694 l 260 694 l 260 608 l 347 608 l 434 608 l 521 608 l 608 608 l 608 694 l 608 781 l 608 868 l 694 868 l 694 781 l 694 694 l 694 608 l 781 608 l 868 608 l 955 608 l 1042 608 l 1128 608 l 1128 694 l 1215 694 l 1215 608 l 1302 608 l 1302 521 l 1215 521 l 1128 521 l 1042 521 l 955 521 l 868 521 l 781 521 l 694 521 l 694 434 l 694 347 l 694 260 l 694 174 l 694 87 l 694 0 l 694 -87 l 608 -87 l 608 0 l 608 87 l 608 174 l 608 260 l 608 347 l 608 434 l 608 521 l 521 521 l 434 521 l 347 521 l 260 521 l 174 521 l 87 521 m 174 0 l 174 87 l 260 87 l 260 0 l 174 0 m 260 87 l 260 174 l 347 174 l 347 87 l 260 87 m 347 174 l 347 260 l 347 347 l 434 347 l 434 260 l 434 174 l 347 174 m 260 694 l 260 781 l 260 868 l 260 955 l 260 1042 l 347 1042 l 434 1042 l 521 1042 l 608 1042 l 694 1042 l 694 955 l 608 955 l 521 955 l 434 955 l 347 955 l 347 868 l 347 781 l 347 694 l 260 694 m 694 1042 l 694 1128 l 781 1128 l 868 1128 l 868 1215 l 955 1215 l 955 1128 l 1042 1128 l 1042 1042 l 955 1042 l 868 1042 l 781 1042 l 694 1042 z "},"了":{"ha":1389,"x_min":87,"x_max":1128,"o":"m 434 -87 l 434 0 l 521 0 l 521 -87 l 608 -87 l 608 -174 l 521 -174 l 521 -87 l 434 -87 m 87 1042 l 87 1128 l 174 1128 l 260 1128 l 347 1128 l 434 1128 l 521 1128 l 608 1128 l 694 1128 l 781 1128 l 868 1128 l 955 1128 l 1042 1128 l 1128 1128 l 1128 1042 l 1042 1042 l 1042 955 l 955 955 l 955 868 l 868 868 l 868 781 l 781 781 l 781 694 l 694 694 l 694 608 l 694 521 l 694 434 l 694 347 l 694 260 l 694 174 l 694 87 l 694 0 l 694 -87 l 608 -87 l 608 0 l 608 87 l 608 174 l 608 260 l 608 347 l 608 434 l 608 521 l 608 608 l 608 694 l 608 781 l 694 781 l 781 781 l 781 868 l 868 868 l 868 955 l 955 955 l 955 1042 l 868 1042 l 781 1042 l 694 1042 l 608 1042 l 521 1042 l 434 1042 l 347 1042 l 260 1042 l 174 1042 l 87 1042 z "},"六":{"ha":1389,"x_min":0,"x_max":1302,"o":"m 87 -87 l 87 0 l 174 0 l 174 -87 l 87 -87 m 781 434 l 781 521 l 868 521 l 868 434 l 955 434 l 955 347 l 1042 347 l 1042 260 l 1128 260 l 1128 174 l 1215 174 l 1215 87 l 1215 0 l 1215 -87 l 1128 -87 l 1128 0 l 1042 0 l 1042 87 l 1042 174 l 955 174 l 955 260 l 955 347 l 868 347 l 868 434 l 781 434 m 0 694 l 0 781 l 87 781 l 174 781 l 260 781 l 347 781 l 434 781 l 521 781 l 608 781 l 608 868 l 521 868 l 521 955 l 521 1042 l 608 1042 l 608 955 l 694 955 l 694 868 l 694 781 l 781 781 l 868 781 l 955 781 l 1042 781 l 1128 781 l 1128 868 l 1215 868 l 1215 781 l 1302 781 l 1302 694 l 1215 694 l 1128 694 l 1042 694 l 955 694 l 868 694 l 781 694 l 694 694 l 608 694 l 521 694 l 434 694 l 347 694 l 260 694 l 174 694 l 87 694 l 0 694 m 434 1042 l 434 1128 l 521 1128 l 521 1042 l 434 1042 m 174 0 l 174 87 l 260 87 l 260 0 l 174 0 m 260 87 l 260 174 l 260 260 l 347 260 l 347 174 l 347 87 l 260 87 m 347 260 l 347 347 l 347 434 l 434 434 l 434 521 l 521 521 l 521 434 l 521 347 l 434 347 l 434 260 l 347 260 z "},"你":{"ha":1389,"x_min":0,"x_max":1215,"o":"m 608 -87 l 608 0 l 694 0 l 694 -87 l 781 -87 l 781 -174 l 694 -174 l 694 -87 l 608 -87 m 434 174 l 434 260 l 521 260 l 521 174 l 434 174 m 955 434 l 955 521 l 1042 521 l 1042 434 l 1128 434 l 1128 347 l 1215 347 l 1215 260 l 1215 174 l 1128 174 l 1128 260 l 1042 260 l 1042 347 l 1042 434 l 955 434 m 0 608 l 0 694 l 87 694 l 87 608 l 0 608 m 347 608 l 347 694 l 434 694 l 434 608 l 347 608 m 1042 694 l 1042 781 l 1128 781 l 1128 694 l 1042 694 m 260 -87 l 260 -174 l 174 -174 l 174 -87 l 174 0 l 174 87 l 174 174 l 174 260 l 174 347 l 174 434 l 174 521 l 174 608 l 174 694 l 87 694 l 87 781 l 174 781 l 174 868 l 174 955 l 260 955 l 260 868 l 260 781 l 260 694 l 260 608 l 260 521 l 260 434 l 260 347 l 260 260 l 260 174 l 260 87 l 260 0 l 260 -87 m 781 -87 l 781 0 l 781 87 l 781 174 l 781 260 l 781 347 l 781 434 l 781 521 l 781 608 l 781 694 l 868 694 l 868 608 l 868 521 l 868 434 l 868 347 l 868 260 l 868 174 l 868 87 l 868 0 l 868 -87 l 781 -87 m 521 260 l 521 347 l 608 347 l 608 260 l 521 260 m 608 347 l 608 434 l 608 521 l 694 521 l 694 434 l 694 347 l 608 347 m 434 694 l 434 781 l 521 781 l 521 694 l 434 694 m 521 781 l 521 868 l 521 955 l 608 955 l 608 1042 l 608 1128 l 608 1215 l 694 1215 l 694 1128 l 694 1042 l 694 955 l 781 955 l 868 955 l 955 955 l 1042 955 l 1128 955 l 1215 955 l 1215 868 l 1215 781 l 1128 781 l 1128 868 l 1042 868 l 955 868 l 868 868 l 781 868 l 694 868 l 608 868 l 608 781 l 521 781 m 260 955 l 260 1042 l 260 1128 l 260 1215 l 347 1215 l 347 1128 l 347 1042 l 347 955 l 260 955 z "},"任":{"ha":1389,"x_min":0,"x_max":1302,"o":"m 434 0 l 434 87 l 521 87 l 608 87 l 694 87 l 781 87 l 781 174 l 781 260 l 781 347 l 781 434 l 781 521 l 694 521 l 608 521 l 521 521 l 434 521 l 347 521 l 347 434 l 347 347 l 347 260 l 347 174 l 347 87 l 347 0 l 347 -87 l 347 -174 l 260 -174 l 260 -87 l 260 0 l 260 87 l 260 174 l 260 260 l 260 347 l 260 434 l 260 521 l 260 608 l 260 694 l 174 694 l 174 608 l 87 608 l 87 521 l 0 521 l 0 608 l 87 608 l 87 694 l 174 694 l 174 781 l 260 781 l 260 868 l 260 955 l 347 955 l 347 868 l 347 781 l 347 694 l 347 608 l 434 608 l 521 608 l 608 608 l 694 608 l 781 608 l 781 694 l 781 781 l 781 868 l 781 955 l 694 955 l 608 955 l 521 955 l 521 1042 l 608 1042 l 694 1042 l 781 1042 l 868 1042 l 955 1042 l 955 955 l 868 955 l 868 868 l 868 781 l 868 694 l 868 608 l 955 608 l 1042 608 l 1128 608 l 1128 694 l 1215 694 l 1215 608 l 1302 608 l 1302 521 l 1215 521 l 1128 521 l 1042 521 l 955 521 l 868 521 l 868 434 l 868 347 l 868 260 l 868 174 l 868 87 l 955 87 l 1042 87 l 1042 174 l 1128 174 l 1128 87 l 1215 87 l 1215 0 l 1128 0 l 1042 0 l 955 0 l 868 0 l 781 0 l 694 0 l 608 0 l 521 0 l 434 0 m 347 955 l 347 1042 l 347 1128 l 347 1215 l 434 1215 l 434 1128 l 434 1042 l 434 955 l 347 955 m 955 1042 l 955 1128 l 1042 1128 l 1128 1128 l 1128 1042 l 1042 1042 l 955 1042 z "},"三":{"ha":1389,"x_min":0,"x_max":1302,"o":"m 0 0 l 0 87 l 87 87 l 174 87 l 260 87 l 347 87 l 434 87 l 521 87 l 608 87 l 694 87 l 781 87 l 868 87 l 955 87 l 1042 87 l 1128 87 l 1128 174 l 1215 174 l 1215 87 l 1302 87 l 1302 0 l 1215 0 l 1128 0 l 1042 0 l 955 0 l 868 0 l 781 0 l 694 0 l 608 0 l 521 0 l 434 0 l 347 0 l 260 0 l 174 0 l 87 0 l 0 0 m 174 521 l 174 608 l 260 608 l 347 608 l 434 608 l 521 608 l 608 608 l 694 608 l 781 608 l 868 608 l 955 608 l 955 694 l 1042 694 l 1042 608 l 1128 608 l 1128 521 l 1042 521 l 955 521 l 868 521 l 781 521 l 694 521 l 608 521 l 521 521 l 434 521 l 347 521 l 260 521 l 174 521 m 87 955 l 87 1042 l 174 1042 l 260 1042 l 347 1042 l 434 1042 l 521 1042 l 608 1042 l 694 1042 l 781 1042 l 868 1042 l 955 1042 l 1042 1042 l 1042 1128 l 1128 1128 l 1128 1042 l 1215 1042 l 1215 955 l 1128 955 l 1042 955 l 955 955 l 868 955 l 781 955 l 694 955 l 608 955 l 521 955 l 434 955 l 347 955 l 260 955 l 174 955 l 87 955 z "},"善":{"ha":1389,"x_min":0,"x_max":1302,"o":"m 0 347 l 0 434 l 87 434 l 174 434 l 260 434 l 347 434 l 434 434 l 434 521 l 521 521 l 521 434 l 608 434 l 608 521 l 608 608 l 521 608 l 434 608 l 434 521 l 347 521 l 347 608 l 260 608 l 174 608 l 87 608 l 87 694 l 174 694 l 260 694 l 347 694 l 434 694 l 521 694 l 608 694 l 608 781 l 521 781 l 434 781 l 347 781 l 260 781 l 174 781 l 174 868 l 260 868 l 347 868 l 434 868 l 521 868 l 608 868 l 608 955 l 521 955 l 434 955 l 347 955 l 260 955 l 174 955 l 87 955 l 87 1042 l 174 1042 l 260 1042 l 347 1042 l 434 1042 l 434 1128 l 521 1128 l 521 1042 l 608 1042 l 694 1042 l 781 1042 l 781 1128 l 868 1128 l 868 1042 l 955 1042 l 1042 1042 l 1042 1128 l 1128 1128 l 1128 1042 l 1215 1042 l 1215 955 l 1128 955 l 1042 955 l 955 955 l 868 955 l 781 955 l 694 955 l 694 868 l 781 868 l 868 868 l 955 868 l 1042 868 l 1128 868 l 1128 781 l 1042 781 l 955 781 l 868 781 l 781 781 l 694 781 l 694 694 l 781 694 l 868 694 l 955 694 l 1042 694 l 1128 694 l 1215 694 l 1215 608 l 1128 608 l 1042 608 l 955 608 l 955 521 l 868 521 l 868 434 l 955 434 l 1042 434 l 1128 434 l 1128 521 l 1215 521 l 1215 434 l 1302 434 l 1302 347 l 1215 347 l 1128 347 l 1042 347 l 1042 260 l 1128 260 l 1128 174 l 1042 174 l 1042 87 l 1042 0 l 1042 -87 l 1042 -174 l 955 -174 l 955 -87 l 868 -87 l 781 -87 l 694 -87 l 608 -87 l 521 -87 l 434 -87 l 347 -87 l 347 -174 l 260 -174 l 260 -87 l 260 0 l 260 87 l 260 174 l 260 260 l 347 260 l 434 260 l 521 260 l 608 260 l 694 260 l 781 260 l 868 260 l 955 260 l 955 347 l 868 347 l 781 347 l 694 347 l 608 347 l 521 347 l 434 347 l 347 347 l 260 347 l 174 347 l 87 347 l 0 347 m 347 1128 l 347 1215 l 434 1215 l 434 1128 l 347 1128 m 434 0 l 521 0 l 608 0 l 694 0 l 781 0 l 868 0 l 955 0 l 955 87 l 955 174 l 868 174 l 781 174 l 694 174 l 608 174 l 521 174 l 434 174 l 347 174 l 347 87 l 347 0 l 434 0 m 694 434 l 781 434 l 781 521 l 868 521 l 868 608 l 781 608 l 694 608 l 694 521 l 694 434 m 868 1128 l 868 1215 l 955 1215 l 955 1128 l 868 1128 z "},"始":{"ha":1389,"x_min":0,"x_max":1302,"o":"m 0 -87 l 0 0 l 87 0 l 87 -87 l 0 -87 m 87 347 l 87 434 l 174 434 l 174 347 l 260 347 l 260 260 l 347 260 l 347 174 l 434 174 l 434 87 l 521 87 l 521 0 l 521 -87 l 434 -87 l 434 0 l 434 87 l 347 87 l 347 174 l 260 174 l 260 87 l 174 87 l 174 0 l 87 0 l 87 87 l 174 87 l 174 174 l 260 174 l 260 260 l 174 260 l 174 347 l 87 347 m 0 781 l 0 868 l 87 868 l 174 868 l 260 868 l 260 955 l 260 1042 l 260 1128 l 260 1215 l 347 1215 l 347 1128 l 347 1042 l 347 955 l 347 868 l 434 868 l 521 868 l 521 781 l 521 694 l 608 694 l 608 781 l 694 781 l 694 694 l 781 694 l 868 694 l 955 694 l 1042 694 l 1128 694 l 1128 781 l 1215 781 l 1215 694 l 1302 694 l 1302 608 l 1302 521 l 1215 521 l 1215 434 l 1302 434 l 1302 347 l 1215 347 l 1215 260 l 1215 174 l 1215 87 l 1215 0 l 1215 -87 l 1215 -174 l 1128 -174 l 1128 -87 l 1042 -87 l 955 -87 l 868 -87 l 781 -87 l 694 -87 l 694 -174 l 608 -174 l 608 -87 l 608 0 l 608 87 l 608 174 l 608 260 l 608 347 l 608 434 l 694 434 l 781 434 l 868 434 l 955 434 l 1042 434 l 1128 434 l 1128 521 l 1215 521 l 1215 608 l 1128 608 l 1042 608 l 955 608 l 868 608 l 781 608 l 694 608 l 608 608 l 521 608 l 521 521 l 521 434 l 434 434 l 434 347 l 434 260 l 347 260 l 347 347 l 347 434 l 434 434 l 434 521 l 434 608 l 434 694 l 434 781 l 347 781 l 260 781 l 260 694 l 260 608 l 260 521 l 260 434 l 174 434 l 174 521 l 174 608 l 174 694 l 174 781 l 87 781 l 0 781 m 1042 781 l 1042 868 l 1128 868 l 1128 781 l 1042 781 m 781 0 l 868 0 l 955 0 l 1042 0 l 1128 0 l 1128 87 l 1128 174 l 1128 260 l 1128 347 l 1042 347 l 955 347 l 868 347 l 781 347 l 694 347 l 694 260 l 694 174 l 694 87 l 694 0 l 781 0 m 694 781 l 694 868 l 694 955 l 781 955 l 781 868 l 781 781 l 694 781 m 781 955 l 781 1042 l 781 1128 l 781 1215 l 868 1215 l 868 1128 l 868 1042 l 868 955 l 781 955 z "},"示":{"ha":1389,"x_min":0,"x_max":1302,"o":"m 434 -87 l 434 0 l 521 0 l 521 -87 l 608 -87 l 608 -174 l 521 -174 l 521 -87 l 434 -87 m 87 87 l 87 174 l 174 174 l 174 87 l 87 87 m 868 347 l 868 434 l 955 434 l 955 347 l 1042 347 l 1128 347 l 1128 260 l 1215 260 l 1215 174 l 1215 87 l 1128 87 l 1128 174 l 1042 174 l 1042 260 l 955 260 l 955 347 l 868 347 m 0 608 l 0 694 l 87 694 l 174 694 l 260 694 l 347 694 l 434 694 l 521 694 l 608 694 l 694 694 l 781 694 l 868 694 l 955 694 l 1042 694 l 1128 694 l 1128 781 l 1215 781 l 1215 694 l 1302 694 l 1302 608 l 1215 608 l 1128 608 l 1042 608 l 955 608 l 868 608 l 781 608 l 694 608 l 694 521 l 694 434 l 694 347 l 694 260 l 694 174 l 694 87 l 694 0 l 694 -87 l 608 -87 l 608 0 l 608 87 l 608 174 l 608 260 l 608 347 l 608 434 l 608 521 l 608 608 l 521 608 l 434 608 l 347 608 l 260 608 l 174 608 l 87 608 l 0 608 m 174 1042 l 174 1128 l 260 1128 l 347 1128 l 434 1128 l 521 1128 l 608 1128 l 694 1128 l 781 1128 l 868 1128 l 955 1128 l 955 1215 l 1042 1215 l 1042 1128 l 1128 1128 l 1128 1042 l 1042 1042 l 955 1042 l 868 1042 l 781 1042 l 694 1042 l 608 1042 l 521 1042 l 434 1042 l 347 1042 l 260 1042 l 174 1042 m 174 174 l 174 260 l 260 260 l 260 174 l 174 174 m 260 260 l 260 347 l 347 347 l 347 434 l 434 434 l 434 347 l 434 260 l 347 260 l 260 260 z "},"四":{"ha":1389,"x_min":87,"x_max":1302,"o":"m 260 174 l 260 260 l 347 260 l 347 174 l 260 174 m 87 0 l 87 87 l 87 174 l 87 260 l 87 347 l 87 434 l 87 521 l 87 608 l 87 694 l 87 781 l 87 868 l 87 955 l 87 1042 l 174 1042 l 260 1042 l 347 1042 l 434 1042 l 521 1042 l 608 1042 l 694 1042 l 781 1042 l 868 1042 l 955 1042 l 1042 1042 l 1128 1042 l 1128 1128 l 1215 1128 l 1215 1042 l 1302 1042 l 1302 955 l 1215 955 l 1215 868 l 1215 781 l 1215 694 l 1215 608 l 1215 521 l 1215 434 l 1215 347 l 1215 260 l 1215 174 l 1215 87 l 1215 0 l 1215 -87 l 1128 -87 l 1128 0 l 1042 0 l 955 0 l 868 0 l 781 0 l 694 0 l 608 0 l 521 0 l 434 0 l 347 0 l 260 0 l 174 0 l 174 -87 l 87 -87 l 87 0 m 260 87 l 347 87 l 434 87 l 521 87 l 608 87 l 694 87 l 781 87 l 868 87 l 955 87 l 1042 87 l 1128 87 l 1128 174 l 1128 260 l 1128 347 l 1042 347 l 955 347 l 868 347 l 868 434 l 955 434 l 1042 434 l 1128 434 l 1128 521 l 1128 608 l 1128 694 l 1128 781 l 1128 868 l 1128 955 l 1042 955 l 955 955 l 868 955 l 868 868 l 868 781 l 868 694 l 868 608 l 868 521 l 868 434 l 781 434 l 781 521 l 781 608 l 781 694 l 781 781 l 781 868 l 781 955 l 694 955 l 608 955 l 521 955 l 521 868 l 521 781 l 521 694 l 521 608 l 521 521 l 521 434 l 521 347 l 434 347 l 434 260 l 347 260 l 347 347 l 434 347 l 434 434 l 434 521 l 434 608 l 434 694 l 434 781 l 434 868 l 434 955 l 347 955 l 260 955 l 174 955 l 174 868 l 174 781 l 174 694 l 174 608 l 174 521 l 174 434 l 174 347 l 174 260 l 174 174 l 174 87 l 260 87 z "},"速":{"ha":1389,"x_min":0,"x_max":1302,"o":"m 87 -87 l 87 0 l 174 0 l 174 -87 l 87 -87 m 0 608 l 0 694 l 87 694 l 174 694 l 260 694 l 347 694 l 347 608 l 347 521 l 347 434 l 347 347 l 347 260 l 347 174 l 347 87 l 434 87 l 434 0 l 521 0 l 608 0 l 694 0 l 781 0 l 781 87 l 781 174 l 781 260 l 781 347 l 694 347 l 694 260 l 608 260 l 608 174 l 521 174 l 521 87 l 434 87 l 434 174 l 521 174 l 521 260 l 608 260 l 608 347 l 694 347 l 694 434 l 781 434 l 781 521 l 694 521 l 608 521 l 521 521 l 521 434 l 434 434 l 434 521 l 434 608 l 434 694 l 434 781 l 434 868 l 521 868 l 608 868 l 694 868 l 781 868 l 781 955 l 694 955 l 608 955 l 521 955 l 434 955 l 434 1042 l 521 1042 l 608 1042 l 694 1042 l 781 1042 l 781 1128 l 781 1215 l 868 1215 l 868 1128 l 868 1042 l 955 1042 l 1042 1042 l 1128 1042 l 1128 1128 l 1215 1128 l 1215 1042 l 1302 1042 l 1302 955 l 1215 955 l 1128 955 l 1042 955 l 955 955 l 868 955 l 868 868 l 955 868 l 1042 868 l 1128 868 l 1215 868 l 1215 781 l 1215 694 l 1215 608 l 1215 521 l 1215 434 l 1128 434 l 1128 521 l 1042 521 l 955 521 l 868 521 l 868 434 l 955 434 l 955 347 l 1042 347 l 1128 347 l 1128 260 l 1128 174 l 1042 174 l 1042 260 l 955 260 l 955 347 l 868 347 l 868 260 l 868 174 l 868 87 l 868 0 l 955 0 l 1042 0 l 1128 0 l 1128 87 l 1215 87 l 1302 87 l 1302 0 l 1215 0 l 1215 -87 l 1128 -87 l 1042 -87 l 955 -87 l 868 -87 l 781 -87 l 694 -87 l 608 -87 l 521 -87 l 434 -87 l 434 0 l 347 0 l 347 87 l 260 87 l 260 0 l 174 0 l 174 87 l 260 87 l 260 174 l 260 260 l 260 347 l 260 434 l 260 521 l 260 608 l 174 608 l 87 608 l 0 608 m 87 1042 l 87 1128 l 174 1128 l 174 1042 l 260 1042 l 347 1042 l 347 955 l 347 868 l 260 868 l 260 955 l 174 955 l 174 1042 l 87 1042 m 608 608 l 694 608 l 781 608 l 781 694 l 781 781 l 694 781 l 608 781 l 521 781 l 521 694 l 521 608 l 608 608 m 955 608 l 1042 608 l 1128 608 l 1128 694 l 1128 781 l 1042 781 l 955 781 l 868 781 l 868 694 l 868 608 l 955 608 z "},"提":{"ha":1389,"x_min":0,"x_max":1302,"o":"m 434 -174 l 434 -87 l 521 -87 l 521 -174 l 434 -174 m 87 -87 l 87 0 l 174 0 l 174 -87 l 260 -87 l 260 -174 l 174 -174 l 174 -87 l 87 -87 m 0 347 l 0 434 l 87 434 l 174 434 l 174 347 l 87 347 l 0 347 m 434 347 l 434 434 l 521 434 l 608 434 l 694 434 l 781 434 l 868 434 l 955 434 l 1042 434 l 1128 434 l 1215 434 l 1302 434 l 1302 347 l 1215 347 l 1128 347 l 1042 347 l 955 347 l 955 260 l 955 174 l 1042 174 l 1042 260 l 1128 260 l 1128 174 l 1215 174 l 1215 87 l 1128 87 l 1042 87 l 955 87 l 955 0 l 955 -87 l 1042 -87 l 1128 -87 l 1128 0 l 1215 0 l 1302 0 l 1302 -87 l 1215 -87 l 1215 -174 l 1128 -174 l 1042 -174 l 955 -174 l 868 -174 l 781 -174 l 781 -87 l 868 -87 l 868 0 l 868 87 l 868 174 l 868 260 l 868 347 l 781 347 l 694 347 l 608 347 l 521 347 l 434 347 m 0 781 l 0 868 l 87 868 l 174 868 l 260 868 l 260 955 l 260 1042 l 260 1128 l 260 1215 l 347 1215 l 347 1128 l 347 1042 l 347 955 l 347 868 l 434 868 l 521 868 l 521 781 l 434 781 l 347 781 l 347 694 l 347 608 l 434 608 l 434 521 l 347 521 l 347 434 l 347 347 l 347 260 l 347 174 l 347 87 l 347 0 l 347 -87 l 260 -87 l 260 0 l 260 87 l 260 174 l 260 260 l 260 347 l 260 434 l 174 434 l 174 521 l 260 521 l 260 608 l 260 694 l 260 781 l 174 781 l 87 781 l 0 781 m 521 -87 l 521 0 l 608 0 l 608 -87 l 521 -87 m 781 -87 l 694 -87 l 694 0 l 781 0 l 781 -87 m 694 0 l 608 0 l 608 87 l 608 174 l 608 260 l 694 260 l 694 174 l 694 87 l 694 0 m 694 521 l 608 521 l 608 608 l 608 694 l 608 781 l 608 868 l 608 955 l 608 1042 l 608 1128 l 694 1128 l 781 1128 l 868 1128 l 955 1128 l 1042 1128 l 1042 1215 l 1128 1215 l 1128 1128 l 1215 1128 l 1215 1042 l 1128 1042 l 1128 955 l 1128 868 l 1128 781 l 1128 694 l 1128 608 l 1128 521 l 1042 521 l 955 521 l 868 521 l 781 521 l 694 521 m 781 608 l 868 608 l 955 608 l 1042 608 l 1042 694 l 1042 781 l 955 781 l 868 781 l 781 781 l 694 781 l 694 694 l 694 608 l 781 608 m 434 608 l 434 694 l 521 694 l 521 608 l 434 608 m 781 868 l 868 868 l 955 868 l 1042 868 l 1042 955 l 1042 1042 l 955 1042 l 868 1042 l 781 1042 l 694 1042 l 694 955 l 694 868 l 781 868 z "},"跳":{"ha":1389,"x_min":0,"x_max":1302,"o":"m 347 -174 l 347 -87 l 434 -87 l 434 -174 l 347 -174 m 0 0 l 0 87 l 87 87 l 87 174 l 87 260 l 87 347 l 87 434 l 87 521 l 174 521 l 174 434 l 174 347 l 174 260 l 174 174 l 174 87 l 260 87 l 260 174 l 260 260 l 260 347 l 260 434 l 260 521 l 260 608 l 260 694 l 174 694 l 87 694 l 87 781 l 87 868 l 87 955 l 87 1042 l 87 1128 l 174 1128 l 260 1128 l 347 1128 l 434 1128 l 434 1215 l 521 1215 l 521 1128 l 608 1128 l 608 1042 l 521 1042 l 521 955 l 521 868 l 521 781 l 608 781 l 608 694 l 694 694 l 694 781 l 694 868 l 694 955 l 694 1042 l 694 1128 l 694 1215 l 781 1215 l 781 1128 l 781 1042 l 781 955 l 781 868 l 781 781 l 781 694 l 781 608 l 781 521 l 781 434 l 781 347 l 781 260 l 694 260 l 694 174 l 694 87 l 608 87 l 608 0 l 521 0 l 521 -87 l 434 -87 l 434 0 l 521 0 l 521 87 l 608 87 l 608 174 l 608 260 l 694 260 l 694 347 l 694 434 l 608 434 l 608 347 l 521 347 l 521 260 l 434 260 l 434 347 l 521 347 l 521 434 l 608 434 l 608 521 l 694 521 l 694 608 l 608 608 l 608 694 l 521 694 l 434 694 l 347 694 l 347 608 l 347 521 l 434 521 l 521 521 l 521 434 l 434 434 l 347 434 l 347 347 l 347 260 l 347 174 l 434 174 l 521 174 l 521 87 l 434 87 l 347 87 l 347 0 l 260 0 l 174 0 l 174 -87 l 87 -87 l 87 0 l 0 0 m 1042 0 l 1128 0 l 1215 0 l 1215 87 l 1215 174 l 1302 174 l 1302 87 l 1302 0 l 1302 -87 l 1215 -87 l 1128 -87 l 1042 -87 l 955 -87 l 955 0 l 1042 0 m 955 0 l 868 0 l 868 87 l 868 174 l 868 260 l 868 347 l 868 434 l 868 521 l 868 608 l 868 694 l 868 781 l 868 868 l 868 955 l 868 1042 l 868 1128 l 868 1215 l 955 1215 l 955 1128 l 955 1042 l 955 955 l 955 868 l 955 781 l 955 694 l 1042 694 l 1042 608 l 955 608 l 955 521 l 1042 521 l 1042 434 l 1128 434 l 1128 347 l 1128 260 l 1042 260 l 1042 347 l 1042 434 l 955 434 l 955 347 l 955 260 l 955 174 l 955 87 l 955 0 m 260 781 l 347 781 l 434 781 l 434 868 l 434 955 l 434 1042 l 347 1042 l 260 1042 l 174 1042 l 174 955 l 174 868 l 174 781 l 260 781 m 1042 694 l 1042 781 l 1128 781 l 1128 868 l 1215 868 l 1215 781 l 1215 694 l 1128 694 l 1042 694 z "},"通":{"ha":1389,"x_min":0,"x_max":1302,"o":"m 87 -87 l 87 0 l 174 0 l 174 -87 l 87 -87 m 0 608 l 0 694 l 87 694 l 174 694 l 260 694 l 347 694 l 347 608 l 347 521 l 347 434 l 347 347 l 347 260 l 347 174 l 347 87 l 434 87 l 434 0 l 521 0 l 521 -87 l 608 -87 l 694 -87 l 781 -87 l 868 -87 l 955 -87 l 1042 -87 l 1128 -87 l 1128 0 l 1215 0 l 1302 0 l 1302 -87 l 1215 -87 l 1215 -174 l 1128 -174 l 1042 -174 l 955 -174 l 868 -174 l 781 -174 l 694 -174 l 608 -174 l 521 -174 l 521 -87 l 434 -87 l 434 0 l 347 0 l 347 87 l 260 87 l 260 0 l 174 0 l 174 87 l 260 87 l 260 174 l 260 260 l 260 347 l 260 434 l 260 521 l 260 608 l 174 608 l 87 608 l 0 608 m 694 955 l 694 1042 l 781 1042 l 781 955 l 868 955 l 868 868 l 955 868 l 1042 868 l 1042 955 l 1128 955 l 1128 868 l 1215 868 l 1215 781 l 1128 781 l 1128 694 l 1128 608 l 1128 521 l 1128 434 l 1128 347 l 1128 260 l 1128 174 l 1128 87 l 1042 87 l 1042 0 l 955 0 l 955 87 l 1042 87 l 1042 174 l 1042 260 l 955 260 l 868 260 l 868 174 l 955 174 l 955 87 l 868 87 l 868 0 l 781 0 l 781 87 l 781 174 l 781 260 l 694 260 l 608 260 l 608 174 l 608 87 l 608 0 l 521 0 l 521 87 l 521 174 l 521 260 l 521 347 l 521 434 l 521 521 l 521 608 l 521 694 l 521 781 l 521 868 l 608 868 l 694 868 l 781 868 l 781 955 l 694 955 m 87 1042 l 87 1128 l 174 1128 l 174 1042 l 260 1042 l 347 1042 l 347 955 l 347 868 l 260 868 l 260 955 l 174 955 l 174 1042 l 87 1042 m 521 1128 l 521 1215 l 608 1215 l 694 1215 l 781 1215 l 868 1215 l 955 1215 l 1042 1215 l 1128 1215 l 1128 1128 l 1042 1128 l 1042 1042 l 955 1042 l 955 955 l 868 955 l 868 1042 l 955 1042 l 955 1128 l 868 1128 l 781 1128 l 694 1128 l 608 1128 l 521 1128 m 694 347 l 781 347 l 781 434 l 781 521 l 694 521 l 608 521 l 608 434 l 608 347 l 694 347 m 955 347 l 1042 347 l 1042 434 l 1042 521 l 955 521 l 868 521 l 868 434 l 868 347 l 955 347 m 694 608 l 781 608 l 781 694 l 781 781 l 694 781 l 608 781 l 608 694 l 608 608 l 694 608 m 955 608 l 1042 608 l 1042 694 l 1042 781 l 955 781 l 868 781 l 868 694 l 868 608 l 955 608 z "},"五":{"ha":1389,"x_min":0,"x_max":1302,"o":"m 0 -87 l 0 0 l 87 0 l 174 0 l 260 0 l 347 0 l 347 87 l 347 174 l 347 260 l 434 260 l 434 174 l 434 87 l 434 0 l 521 0 l 608 0 l 694 0 l 781 0 l 868 0 l 955 0 l 955 87 l 955 174 l 955 260 l 955 347 l 955 434 l 955 521 l 868 521 l 781 521 l 694 521 l 608 521 l 521 521 l 521 434 l 521 347 l 521 260 l 434 260 l 434 347 l 434 434 l 434 521 l 347 521 l 260 521 l 174 521 l 174 608 l 260 608 l 347 608 l 434 608 l 521 608 l 521 694 l 521 781 l 521 868 l 521 955 l 434 955 l 347 955 l 260 955 l 174 955 l 87 955 l 87 1042 l 174 1042 l 260 1042 l 347 1042 l 434 1042 l 521 1042 l 608 1042 l 694 1042 l 781 1042 l 868 1042 l 955 1042 l 1042 1042 l 1042 1128 l 1128 1128 l 1128 1042 l 1215 1042 l 1215 955 l 1128 955 l 1042 955 l 955 955 l 868 955 l 781 955 l 694 955 l 608 955 l 608 868 l 608 781 l 608 694 l 608 608 l 694 608 l 781 608 l 868 608 l 955 608 l 955 694 l 1042 694 l 1042 608 l 1128 608 l 1215 608 l 1215 521 l 1128 521 l 1042 521 l 1042 434 l 1042 347 l 1042 260 l 1042 174 l 1042 87 l 1042 0 l 1128 0 l 1128 87 l 1215 87 l 1215 0 l 1302 0 l 1302 -87 l 1215 -87 l 1128 -87 l 1042 -87 l 955 -87 l 868 -87 l 781 -87 l 694 -87 l 608 -87 l 521 -87 l 434 -87 l 347 -87 l 260 -87 l 174 -87 l 87 -87 l 0 -87 z "},"喜":{"ha":1389,"x_min":0,"x_max":1302,"o":"m 0 347 l 0 434 l 87 434 l 174 434 l 260 434 l 347 434 l 434 434 l 434 521 l 347 521 l 260 521 l 260 608 l 260 694 l 260 781 l 347 781 l 434 781 l 521 781 l 608 781 l 694 781 l 781 781 l 868 781 l 955 781 l 1042 781 l 1042 694 l 1042 608 l 1042 521 l 955 521 l 868 521 l 868 434 l 955 434 l 1042 434 l 1128 434 l 1128 521 l 1215 521 l 1215 434 l 1302 434 l 1302 347 l 1215 347 l 1128 347 l 1042 347 l 1042 260 l 1128 260 l 1128 174 l 1042 174 l 1042 87 l 1042 0 l 1042 -87 l 1042 -174 l 955 -174 l 955 -87 l 868 -87 l 781 -87 l 694 -87 l 608 -87 l 521 -87 l 434 -87 l 347 -87 l 347 -174 l 260 -174 l 260 -87 l 260 0 l 260 87 l 260 174 l 260 260 l 347 260 l 434 260 l 521 260 l 608 260 l 694 260 l 781 260 l 868 260 l 955 260 l 955 347 l 868 347 l 781 347 l 694 347 l 608 347 l 521 347 l 434 347 l 347 347 l 260 347 l 174 347 l 87 347 l 0 347 m 174 868 l 174 955 l 260 955 l 347 955 l 434 955 l 521 955 l 608 955 l 608 1042 l 521 1042 l 434 1042 l 347 1042 l 260 1042 l 174 1042 l 87 1042 l 87 1128 l 174 1128 l 260 1128 l 347 1128 l 434 1128 l 521 1128 l 608 1128 l 608 1215 l 694 1215 l 694 1128 l 781 1128 l 868 1128 l 955 1128 l 1042 1128 l 1042 1215 l 1128 1215 l 1128 1128 l 1215 1128 l 1215 1042 l 1128 1042 l 1042 1042 l 955 1042 l 868 1042 l 781 1042 l 694 1042 l 694 955 l 781 955 l 868 955 l 955 955 l 1042 955 l 1128 955 l 1128 868 l 1042 868 l 955 868 l 868 868 l 781 868 l 694 868 l 608 868 l 521 868 l 434 868 l 347 868 l 260 868 l 174 868 m 434 0 l 521 0 l 608 0 l 694 0 l 781 0 l 868 0 l 955 0 l 955 87 l 955 174 l 868 174 l 781 174 l 694 174 l 608 174 l 521 174 l 434 174 l 347 174 l 347 87 l 347 0 l 434 0 m 608 434 l 694 434 l 781 434 l 781 521 l 694 521 l 608 521 l 521 521 l 521 434 l 608 434 m 434 608 l 521 608 l 608 608 l 694 608 l 781 608 l 868 608 l 955 608 l 955 694 l 868 694 l 781 694 l 694 694 l 608 694 l 521 694 l 434 694 l 347 694 l 347 608 l 434 608 z "},"戏":{"ha":1389,"x_min":0,"x_max":1302,"o":"m 521 -174 l 521 -87 l 608 -87 l 608 -174 l 521 -174 m 0 0 l 0 87 l 87 87 l 87 0 l 0 0 m 87 781 l 87 868 l 174 868 l 174 781 l 260 781 l 260 694 l 347 694 l 347 608 l 347 521 l 434 521 l 434 434 l 521 434 l 521 347 l 608 347 l 608 260 l 608 174 l 521 174 l 521 260 l 521 347 l 434 347 l 434 434 l 347 434 l 347 347 l 347 260 l 260 260 l 260 174 l 174 174 l 174 87 l 87 87 l 87 174 l 174 174 l 174 260 l 260 260 l 260 347 l 260 434 l 347 434 l 347 521 l 260 521 l 260 608 l 260 694 l 174 694 l 174 781 l 87 781 m 87 955 l 87 1042 l 174 1042 l 260 1042 l 347 1042 l 434 1042 l 521 1042 l 608 1042 l 608 955 l 608 868 l 694 868 l 781 868 l 781 955 l 781 1042 l 781 1128 l 781 1215 l 868 1215 l 868 1128 l 868 1042 l 868 955 l 868 868 l 955 868 l 1042 868 l 1128 868 l 1215 868 l 1302 868 l 1302 781 l 1215 781 l 1128 781 l 1042 781 l 955 781 l 868 781 l 868 694 l 868 608 l 868 521 l 868 434 l 868 347 l 868 260 l 955 260 l 955 174 l 955 87 l 1042 87 l 1042 0 l 1128 0 l 1128 -87 l 1215 -87 l 1215 0 l 1215 87 l 1302 87 l 1302 0 l 1302 -87 l 1302 -174 l 1215 -174 l 1128 -174 l 1128 -87 l 1042 -87 l 1042 0 l 955 0 l 955 87 l 868 87 l 781 87 l 781 0 l 694 0 l 694 -87 l 608 -87 l 608 0 l 694 0 l 694 87 l 781 87 l 781 174 l 868 174 l 868 260 l 781 260 l 781 347 l 781 434 l 781 521 l 781 608 l 781 694 l 781 781 l 694 781 l 608 781 l 521 781 l 521 694 l 521 608 l 521 521 l 434 521 l 434 608 l 434 694 l 434 781 l 521 781 l 521 868 l 521 955 l 434 955 l 347 955 l 260 955 l 174 955 l 87 955 m 955 1042 l 955 1128 l 1042 1128 l 1042 1042 l 1128 1042 l 1128 955 l 1042 955 l 1042 1042 l 955 1042 m 955 260 l 955 347 l 1042 347 l 1042 260 l 955 260 m 1042 347 l 1042 434 l 1042 521 l 1128 521 l 1128 434 l 1128 347 l 1042 347 m 1128 521 l 1128 608 l 1128 694 l 1215 694 l 1215 608 l 1215 521 l 1128 521 z "},"一":{"ha":1389,"x_min":0,"x_max":1302,"o":"m 0 521 l 0 608 l 87 608 l 174 608 l 260 608 l 347 608 l 434 608 l 521 608 l 608 608 l 694 608 l 781 608 l 868 608 l 955 608 l 1042 608 l 1128 608 l 1128 694 l 1215 694 l 1215 608 l 1302 608 l 1302 521 l 1215 521 l 1128 521 l 1042 521 l 955 521 l 868 521 l 781 521 l 694 521 l 608 521 l 521 521 l 434 521 l 347 521 l 260 521 l 174 521 l 87 521 l 0 521 z "},"意":{"ha":1389,"x_min":0,"x_max":1302,"o":"m 0 -87 l 0 0 l 87 0 l 87 -87 l 0 -87 m 1128 87 l 1128 174 l 1215 174 l 1215 87 l 1302 87 l 1302 0 l 1302 -87 l 1215 -87 l 1215 0 l 1215 87 l 1128 87 m 0 781 l 0 868 l 87 868 l 174 868 l 260 868 l 347 868 l 434 868 l 434 955 l 521 955 l 521 868 l 608 868 l 694 868 l 781 868 l 781 955 l 868 955 l 868 868 l 955 868 l 1042 868 l 1128 868 l 1128 955 l 1215 955 l 1215 868 l 1302 868 l 1302 781 l 1215 781 l 1128 781 l 1042 781 l 1042 694 l 1128 694 l 1128 608 l 1042 608 l 1042 521 l 1042 434 l 1042 347 l 1042 260 l 955 260 l 868 260 l 781 260 l 694 260 l 608 260 l 608 174 l 694 174 l 781 174 l 781 87 l 781 0 l 694 0 l 694 87 l 608 87 l 608 174 l 521 174 l 521 260 l 434 260 l 347 260 l 260 260 l 260 347 l 260 434 l 260 521 l 260 608 l 260 694 l 347 694 l 434 694 l 521 694 l 608 694 l 694 694 l 781 694 l 868 694 l 955 694 l 955 781 l 868 781 l 781 781 l 694 781 l 608 781 l 521 781 l 434 781 l 347 781 l 260 781 l 174 781 l 87 781 l 0 781 m 174 1042 l 174 1128 l 260 1128 l 347 1128 l 434 1128 l 521 1128 l 608 1128 l 608 1215 l 694 1215 l 694 1128 l 781 1128 l 868 1128 l 955 1128 l 955 1215 l 1042 1215 l 1042 1128 l 1128 1128 l 1128 1042 l 1042 1042 l 955 1042 l 955 955 l 868 955 l 868 1042 l 781 1042 l 694 1042 l 608 1042 l 521 1042 l 434 1042 l 434 955 l 347 955 l 347 1042 l 260 1042 l 174 1042 m 434 -87 l 521 -87 l 608 -87 l 694 -87 l 781 -87 l 868 -87 l 955 -87 l 955 0 l 955 87 l 1042 87 l 1042 0 l 1042 -87 l 1042 -174 l 955 -174 l 868 -174 l 781 -174 l 694 -174 l 608 -174 l 521 -174 l 434 -174 l 347 -174 l 347 -87 l 434 -87 m 347 -87 l 260 -87 l 260 0 l 260 87 l 260 174 l 347 174 l 347 87 l 347 0 l 347 -87 m 87 0 l 87 87 l 87 174 l 174 174 l 174 87 l 174 0 l 87 0 m 434 347 l 521 347 l 608 347 l 694 347 l 781 347 l 868 347 l 955 347 l 955 434 l 868 434 l 781 434 l 694 434 l 608 434 l 521 434 l 434 434 l 347 434 l 347 347 l 434 347 m 434 521 l 521 521 l 608 521 l 694 521 l 781 521 l 868 521 l 955 521 l 955 608 l 868 608 l 781 608 l 694 608 l 608 608 l 521 608 l 434 608 l 347 608 l 347 521 l 434 521 z "},"用":{"ha":1389,"x_min":0,"x_max":1215,"o":"m 0 -174 l 0 -87 l 87 -87 l 87 -174 l 0 -174 m 868 -87 l 868 0 l 955 0 l 955 -87 l 1042 -87 l 1042 -174 l 955 -174 l 955 -87 l 868 -87 m 87 -87 l 87 0 l 87 87 l 174 87 l 174 0 l 174 -87 l 87 -87 m 1042 -87 l 1042 0 l 1042 87 l 1042 174 l 1042 260 l 1042 347 l 955 347 l 868 347 l 781 347 l 694 347 l 694 260 l 694 174 l 694 87 l 694 0 l 694 -87 l 608 -87 l 608 0 l 608 87 l 608 174 l 608 260 l 608 347 l 521 347 l 434 347 l 347 347 l 260 347 l 260 260 l 260 174 l 260 87 l 174 87 l 174 174 l 174 260 l 174 347 l 174 434 l 174 521 l 174 608 l 174 694 l 174 781 l 174 868 l 174 955 l 174 1042 l 174 1128 l 260 1128 l 347 1128 l 434 1128 l 521 1128 l 608 1128 l 694 1128 l 781 1128 l 868 1128 l 955 1128 l 1042 1128 l 1042 1215 l 1128 1215 l 1128 1128 l 1215 1128 l 1215 1042 l 1128 1042 l 1128 955 l 1128 868 l 1128 781 l 1128 694 l 1128 608 l 1128 521 l 1128 434 l 1128 347 l 1128 260 l 1128 174 l 1128 87 l 1128 0 l 1128 -87 l 1042 -87 m 347 434 l 434 434 l 521 434 l 608 434 l 608 521 l 608 608 l 608 694 l 521 694 l 434 694 l 347 694 l 260 694 l 260 608 l 260 521 l 260 434 l 347 434 m 781 434 l 868 434 l 955 434 l 1042 434 l 1042 521 l 1042 608 l 1042 694 l 955 694 l 868 694 l 781 694 l 694 694 l 694 608 l 694 521 l 694 434 l 781 434 m 347 781 l 434 781 l 521 781 l 608 781 l 608 868 l 608 955 l 608 1042 l 521 1042 l 434 1042 l 347 1042 l 260 1042 l 260 955 l 260 868 l 260 781 l 347 781 m 781 781 l 868 781 l 955 781 l 1042 781 l 1042 868 l 1042 955 l 1042 1042 l 955 1042 l 868 1042 l 781 1042 l 694 1042 l 694 955 l 694 868 l 694 781 l 781 781 z "},"游":{"ha":1389,"x_min":0,"x_max":1302,"o":"m 608 -87 l 608 0 l 694 0 l 694 87 l 694 174 l 694 260 l 694 347 l 694 434 l 694 521 l 694 608 l 608 608 l 608 521 l 608 434 l 608 347 l 608 260 l 521 260 l 521 174 l 521 87 l 434 87 l 434 0 l 347 0 l 347 -87 l 260 -87 l 260 -174 l 174 -174 l 174 -87 l 174 0 l 174 87 l 174 174 l 174 260 l 87 260 l 0 260 l 0 347 l 87 347 l 174 347 l 174 434 l 260 434 l 260 347 l 260 260 l 260 174 l 260 87 l 260 0 l 347 0 l 347 87 l 434 87 l 434 174 l 434 260 l 521 260 l 521 347 l 521 434 l 521 521 l 521 608 l 521 694 l 521 781 l 521 868 l 434 868 l 347 868 l 347 955 l 434 955 l 521 955 l 608 955 l 694 955 l 781 955 l 868 955 l 955 955 l 955 868 l 868 868 l 868 781 l 955 781 l 1042 781 l 1128 781 l 1215 781 l 1302 781 l 1302 694 l 1215 694 l 1215 608 l 1128 608 l 1128 521 l 1128 434 l 1215 434 l 1302 434 l 1302 347 l 1215 347 l 1128 347 l 1128 260 l 1128 174 l 1128 87 l 1128 0 l 1128 -87 l 1042 -87 l 1042 -174 l 955 -174 l 955 -87 l 1042 -87 l 1042 0 l 1042 87 l 1042 174 l 1042 260 l 1042 347 l 955 347 l 868 347 l 781 347 l 781 260 l 781 174 l 781 87 l 781 0 l 781 -87 l 694 -87 l 608 -87 m 868 -87 l 868 0 l 955 0 l 955 -87 l 868 -87 m 0 781 l 0 868 l 87 868 l 87 781 l 174 781 l 260 781 l 260 694 l 260 608 l 174 608 l 174 694 l 87 694 l 87 781 l 0 781 m 87 1042 l 87 1128 l 174 1128 l 174 1042 l 260 1042 l 260 955 l 260 868 l 174 868 l 174 955 l 174 1042 l 87 1042 m 521 1128 l 521 1215 l 608 1215 l 608 1128 l 694 1128 l 694 1042 l 608 1042 l 608 1128 l 521 1128 m 868 434 l 955 434 l 1042 434 l 1042 521 l 1042 608 l 1128 608 l 1128 694 l 1042 694 l 955 694 l 868 694 l 868 781 l 781 781 l 781 868 l 694 868 l 608 868 l 608 781 l 608 694 l 694 694 l 781 694 l 781 608 l 781 521 l 781 434 l 868 434 m 260 434 l 260 521 l 347 521 l 347 434 l 260 434 m 955 955 l 955 1042 l 955 1128 l 955 1215 l 1042 1215 l 1042 1128 l 1042 1042 l 1128 1042 l 1128 1128 l 1215 1128 l 1215 1042 l 1302 1042 l 1302 955 l 1215 955 l 1128 955 l 1042 955 l 955 955 z "},"远":{"ha":1389,"x_min":0,"x_max":1302,"o":"m 87 -87 l 87 0 l 174 0 l 174 -87 l 87 -87 m 0 608 l 0 694 l 87 694 l 174 694 l 260 694 l 347 694 l 347 608 l 347 521 l 347 434 l 347 347 l 347 260 l 347 174 l 347 87 l 434 87 l 434 0 l 521 0 l 608 0 l 694 0 l 781 0 l 868 0 l 955 0 l 1042 0 l 1128 0 l 1128 87 l 1215 87 l 1302 87 l 1302 0 l 1215 0 l 1215 -87 l 1128 -87 l 1042 -87 l 955 -87 l 868 -87 l 781 -87 l 694 -87 l 608 -87 l 521 -87 l 434 -87 l 434 0 l 347 0 l 347 87 l 260 87 l 260 0 l 174 0 l 174 87 l 260 87 l 260 174 l 260 260 l 260 347 l 260 434 l 260 521 l 260 608 l 174 608 l 87 608 l 0 608 m 434 694 l 434 781 l 521 781 l 608 781 l 694 781 l 781 781 l 868 781 l 955 781 l 1042 781 l 1042 868 l 1128 868 l 1128 781 l 1215 781 l 1215 694 l 1128 694 l 1042 694 l 955 694 l 955 608 l 955 521 l 955 434 l 955 347 l 955 260 l 1042 260 l 1128 260 l 1128 347 l 1128 434 l 1215 434 l 1215 347 l 1215 260 l 1215 174 l 1128 174 l 1042 174 l 955 174 l 955 260 l 868 260 l 868 347 l 868 434 l 868 521 l 868 608 l 868 694 l 781 694 l 694 694 l 694 608 l 694 521 l 694 434 l 694 347 l 608 347 l 608 260 l 608 174 l 521 174 l 521 87 l 434 87 l 434 174 l 521 174 l 521 260 l 521 347 l 608 347 l 608 434 l 608 521 l 608 608 l 608 694 l 521 694 l 434 694 m 87 1042 l 87 1128 l 174 1128 l 174 1042 l 260 1042 l 347 1042 l 347 955 l 347 868 l 260 868 l 260 955 l 174 955 l 174 1042 l 87 1042 m 521 1042 l 521 1128 l 608 1128 l 694 1128 l 781 1128 l 868 1128 l 955 1128 l 955 1215 l 1042 1215 l 1042 1128 l 1128 1128 l 1128 1042 l 1042 1042 l 955 1042 l 868 1042 l 781 1042 l 694 1042 l 608 1042 l 521 1042 z "}}}
